<svg xmlns="http://www.w3.org/2000/svg" xmlns:xlink="http://www.w3.org/1999/xlink" width="500" zoomAndPan="magnify" viewBox="0 0 375 374.999991" height="500" preserveAspectRatio="xMidYMid meet" version="1.0"><defs><clipPath id="3a5a0c7110"><path d="M 77 165 L 358.78125 165 L 358.78125 209 L 77 209 Z M 77 165 " clip-rule="nonzero"/></clipPath><clipPath id="28934c67f0"><path d="M 131 57 L 358.78125 57 L 358.78125 102 L 131 102 Z M 131 57 " clip-rule="nonzero"/></clipPath><clipPath id="62292d54ca"><path d="M 249 111 L 358.78125 111 L 358.78125 156 L 249 156 Z M 249 111 " clip-rule="nonzero"/></clipPath><clipPath id="8a1b55bd5f"><path d="M 5.53125 165 L 56 165 L 56 209 L 5.53125 209 Z M 5.53125 165 " clip-rule="nonzero"/></clipPath><clipPath id="9306155b68"><path d="M 141 218 L 358.78125 218 L 358.78125 263 L 141 263 Z M 141 218 " clip-rule="nonzero"/></clipPath><clipPath id="bc410cf656"><path d="M 163 272 L 358.78125 272 L 358.78125 317 L 163 317 Z M 163 272 " clip-rule="nonzero"/></clipPath></defs><g clip-path="url(#3a5a0c7110)"><path fill="#0091ff" d="M 481.957031 165.023438 L 253.996094 165.023438 L 244.261719 181.855469 L 221.722656 181.855469 L 211.988281 165.023438 C 203.59375 165.023438 98.421875 165.023438 90.027344 165.023438 L 77.4375 186.828125 L 90.027344 208.632812 C 98.421875 208.632812 203.59375 208.632812 211.988281 208.632812 L 221.722656 191.804688 L 244.261719 191.804688 L 253.996094 208.632812 L 481.957031 208.632812 C 484.464844 194.226562 484.464844 179.472656 481.957031 165.023438 Z M 481.957031 165.023438 " fill-opacity="1" fill-rule="nonzero"/></g><g clip-path="url(#28934c67f0)"><path fill="#0091ff" d="M 168.984375 101.425781 L 178.71875 84.597656 L 201.257812 84.597656 L 210.992188 101.425781 L 451.324219 101.425781 C 406.15625 50.503906 355.496094 57.773438 294.40625 57.773438 L 210.992188 57.773438 L 201.257812 74.601562 L 178.71875 74.601562 L 168.984375 57.773438 L 143.804688 57.773438 L 131.214844 79.578125 L 143.804688 101.382812 L 168.984375 101.382812 Z M 168.984375 101.425781 " fill-opacity="1" fill-rule="nonzero"/></g><g clip-path="url(#62292d54ca)"><path fill="#0091ff" d="M 319.542969 128.25 L 297.003906 128.25 L 287.269531 111.421875 L 262.089844 111.421875 L 249.5 133.226562 L 262.089844 155.03125 L 287.269531 155.03125 L 297.003906 138.199219 L 319.542969 138.199219 L 329.277344 155.03125 L 479.835938 155.03125 C 475.769531 139.109375 468.71875 124.355469 459.328125 111.375 L 329.277344 111.375 Z M 319.542969 128.25 " fill-opacity="1" fill-rule="nonzero"/></g><g clip-path="url(#8a1b55bd5f)"><path fill="#0091ff" d="M 18.121094 165.023438 L 5.53125 186.828125 L 18.121094 208.675781 L 43.34375 208.675781 L 55.933594 186.828125 L 43.34375 165.023438 Z M 18.121094 165.023438 " fill-opacity="1" fill-rule="nonzero"/></g><path fill="#0091ff" d="M 177.59375 133.226562 L 190.183594 155.03125 L 215.40625 155.03125 L 227.996094 133.226562 L 215.40625 111.421875 L 190.183594 111.421875 Z M 177.59375 133.226562 " fill-opacity="1" fill-rule="nonzero"/><path fill="#0091ff" d="M 104.175781 272.234375 L 91.542969 294.082031 L 104.175781 315.886719 L 129.355469 315.886719 L 141.945312 294.082031 L 129.355469 272.234375 Z M 104.175781 272.234375 " fill-opacity="1" fill-rule="nonzero"/><g clip-path="url(#9306155b68)"><path fill="#0091ff" d="M 211.988281 235.457031 L 189.449219 235.457031 L 179.714844 218.628906 L 154.535156 218.628906 L 141.945312 240.433594 L 154.535156 262.238281 L 179.714844 262.238281 L 189.449219 245.410156 L 211.988281 245.410156 L 221.722656 262.238281 L 459.285156 262.238281 C 468.675781 249.257812 475.726562 234.507812 479.792969 218.585938 C 400.921875 218.585938 300.550781 218.585938 221.679688 218.585938 Z M 211.988281 235.457031 " fill-opacity="1" fill-rule="nonzero"/></g><g clip-path="url(#bc410cf656)"><path fill="#0091ff" d="M 276.539062 289.105469 L 253.996094 289.105469 L 244.261719 272.277344 C 221.550781 272.277344 198.792969 272.277344 176.035156 272.277344 L 163.445312 294.082031 L 176.035156 315.886719 C 198.792969 315.886719 221.507812 315.886719 244.261719 315.886719 L 253.996094 299.054688 L 276.539062 299.054688 L 286.273438 315.886719 C 350.78125 315.886719 404.988281 324.496094 451.324219 272.234375 L 286.273438 272.234375 Z M 276.539062 289.105469 " fill-opacity="1" fill-rule="nonzero"/></g><path stroke-linecap="round" transform="matrix(0, 0.75, -0.75, 0, 369.463456, 41.138668)" fill="none" stroke-linejoin="miter" d="M 13.997401 13.998151 L 376.309925 13.998151 " stroke="#0091ff" stroke-width="28" stroke-opacity="1" stroke-miterlimit="4"/></svg>